<mxfile host="65bd71144e">
    <diagram id="JuuY7jOk0sbCupaLBVmT" name="Page-1">
        <mxGraphModel dx="896" dy="2737" grid="1" gridSize="10" guides="1" tooltips="1" connect="1" arrows="1" fold="1" page="1" pageScale="1" pageWidth="850" pageHeight="1100" math="0" shadow="0">
            <root>
                <mxCell id="0"/>
                <mxCell id="1" parent="0"/>
                <mxCell id="50" value="" style="edgeStyle=none;html=1;" edge="1" parent="1" source="2" target="49">
                    <mxGeometry relative="1" as="geometry"/>
                </mxCell>
                <mxCell id="2" value="Début" style="ellipse;whiteSpace=wrap;html=1;" parent="1" vertex="1">
                    <mxGeometry x="396" y="-1288" width="90" height="40" as="geometry"/>
                </mxCell>
                <mxCell id="106" value="" style="edgeStyle=none;html=1;" edge="1" parent="1" source="48" target="105">
                    <mxGeometry relative="1" as="geometry"/>
                </mxCell>
                <mxCell id="48" value="parcourrir les ingrédients" style="whiteSpace=wrap;html=1;" vertex="1" parent="1">
                    <mxGeometry x="144" y="-625.12" width="141.25" height="24.12" as="geometry"/>
                </mxCell>
                <mxCell id="52" value="" style="edgeStyle=none;html=1;" edge="1" parent="1" source="49" target="51">
                    <mxGeometry relative="1" as="geometry"/>
                </mxCell>
                <mxCell id="98" value="" style="edgeStyle=none;html=1;" edge="1" parent="1" source="49" target="97">
                    <mxGeometry relative="1" as="geometry"/>
                </mxCell>
                <mxCell id="49" value="Recettes totales" style="shape=parallelogram;perimeter=parallelogramPerimeter;whiteSpace=wrap;html=1;fixedSize=1;" vertex="1" parent="1">
                    <mxGeometry x="381" y="-1223" width="120" height="30" as="geometry"/>
                </mxCell>
                <mxCell id="54" value="" style="edgeStyle=none;html=1;entryX=0.5;entryY=0;entryDx=0;entryDy=0;" edge="1" parent="1" source="51" target="107">
                    <mxGeometry relative="1" as="geometry"/>
                </mxCell>
                <mxCell id="51" value="input&amp;gt;3" style="rhombus;whiteSpace=wrap;html=1;" vertex="1" parent="1">
                    <mxGeometry x="393.5" y="-1171" width="95" height="50" as="geometry"/>
                </mxCell>
                <mxCell id="56" value="" style="edgeStyle=none;html=1;" edge="1" parent="1" target="55">
                    <mxGeometry relative="1" as="geometry">
                        <mxPoint x="441" y="-819" as="sourcePoint"/>
                    </mxGeometry>
                </mxCell>
                <mxCell id="114" value="" style="edgeStyle=none;html=1;" edge="1" parent="1" source="53" target="113">
                    <mxGeometry relative="1" as="geometry"/>
                </mxCell>
                <mxCell id="53" value="Parcourir le nom de la recette" style="whiteSpace=wrap;html=1;" vertex="1" parent="1">
                    <mxGeometry x="381" y="-900" width="120" height="30" as="geometry"/>
                </mxCell>
                <mxCell id="58" value="" style="edgeStyle=none;html=1;" edge="1" parent="1" source="55" target="57">
                    <mxGeometry relative="1" as="geometry"/>
                </mxCell>
                <mxCell id="64" value="" style="edgeStyle=none;html=1;" edge="1" parent="1" source="55" target="62">
                    <mxGeometry relative="1" as="geometry"/>
                </mxCell>
                <mxCell id="120" value="" style="edgeStyle=none;html=1;" edge="1" parent="1" source="55" target="119">
                    <mxGeometry relative="1" as="geometry"/>
                </mxCell>
                <mxCell id="55" value="Correspondance?" style="rhombus;whiteSpace=wrap;html=1;" vertex="1" parent="1">
                    <mxGeometry x="369.75" y="-767.5" width="142.5" height="44.5" as="geometry"/>
                </mxCell>
                <mxCell id="94" value="" style="edgeStyle=none;html=1;" edge="1" parent="1" source="57" target="93">
                    <mxGeometry relative="1" as="geometry"/>
                </mxCell>
                <mxCell id="57" value="Filtrer les recette" style="whiteSpace=wrap;html=1;" vertex="1" parent="1">
                    <mxGeometry x="381" y="-694.87" width="120" height="31.75" as="geometry"/>
                </mxCell>
                <mxCell id="59" value="oui" style="text;html=1;align=center;verticalAlign=middle;resizable=0;points=[];autosize=1;strokeColor=none;fillColor=none;" vertex="1" parent="1">
                    <mxGeometry x="406" y="-723" width="40" height="30" as="geometry"/>
                </mxCell>
                <mxCell id="77" value="" style="edgeStyle=none;html=1;" edge="1" parent="1" source="62" target="76">
                    <mxGeometry relative="1" as="geometry"/>
                </mxCell>
                <mxCell id="62" value="Parcourir la description de la recette" style="whiteSpace=wrap;html=1;" vertex="1" parent="1">
                    <mxGeometry x="149" y="-762" width="130" height="34.37" as="geometry"/>
                </mxCell>
                <mxCell id="65" value="Non" style="text;html=1;align=center;verticalAlign=middle;resizable=0;points=[];autosize=1;strokeColor=none;fillColor=none;" vertex="1" parent="1">
                    <mxGeometry x="174" y="-662" width="50" height="30" as="geometry"/>
                </mxCell>
                <mxCell id="78" value="" style="edgeStyle=none;html=1;" edge="1" parent="1" source="76" target="48">
                    <mxGeometry relative="1" as="geometry"/>
                </mxCell>
                <mxCell id="115" style="edgeStyle=none;html=1;exitX=0;exitY=0.5;exitDx=0;exitDy=0;entryX=0;entryY=0.5;entryDx=0;entryDy=0;" edge="1" parent="1" source="76" target="113">
                    <mxGeometry relative="1" as="geometry">
                        <mxPoint x="90" y="-830" as="targetPoint"/>
                        <Array as="points">
                            <mxPoint x="90" y="-680"/>
                            <mxPoint x="90" y="-830"/>
                        </Array>
                    </mxGeometry>
                </mxCell>
                <mxCell id="76" value="Correspondance?" style="rhombus;whiteSpace=wrap;html=1;" vertex="1" parent="1">
                    <mxGeometry x="142.75" y="-700.5" width="142.5" height="44.5" as="geometry"/>
                </mxCell>
                <mxCell id="80" value="oui" style="text;html=1;align=center;verticalAlign=middle;resizable=0;points=[];autosize=1;strokeColor=none;fillColor=none;" vertex="1" parent="1">
                    <mxGeometry x="100" y="-712.5" width="40" height="30" as="geometry"/>
                </mxCell>
                <mxCell id="90" value="Non" style="text;html=1;align=center;verticalAlign=middle;resizable=0;points=[];autosize=1;strokeColor=none;fillColor=none;" vertex="1" parent="1">
                    <mxGeometry x="304" y="-774" width="50" height="30" as="geometry"/>
                </mxCell>
                <mxCell id="123" value="" style="edgeStyle=none;html=1;" edge="1" parent="1" source="93" target="95">
                    <mxGeometry relative="1" as="geometry"/>
                </mxCell>
                <mxCell id="93" value="Tableau des Recettes filtrées" style="shape=parallelogram;perimeter=parallelogramPerimeter;whiteSpace=wrap;html=1;fixedSize=1;" vertex="1" parent="1">
                    <mxGeometry x="366" y="-629" width="149" height="40" as="geometry"/>
                </mxCell>
                <mxCell id="125" value="" style="edgeStyle=none;html=1;" edge="1" parent="1" source="95" target="124">
                    <mxGeometry relative="1" as="geometry"/>
                </mxCell>
                <mxCell id="95" value="Affichage des recettes filtrées" style="whiteSpace=wrap;html=1;" vertex="1" parent="1">
                    <mxGeometry x="378.75" y="-566" width="120" height="60" as="geometry"/>
                </mxCell>
                <mxCell id="100" value="" style="edgeStyle=none;html=1;" edge="1" parent="1" source="97" target="99">
                    <mxGeometry relative="1" as="geometry"/>
                </mxCell>
                <mxCell id="97" value="Display de toutes les cartes recettes" style="whiteSpace=wrap;html=1;" vertex="1" parent="1">
                    <mxGeometry x="581" y="-1230" width="119" height="45" as="geometry"/>
                </mxCell>
                <mxCell id="99" value="Listes ingrédients/ustensils et Appareils des recettes affichées" style="whiteSpace=wrap;html=1;" vertex="1" parent="1">
                    <mxGeometry x="581" y="-1166" width="120" height="60" as="geometry"/>
                </mxCell>
                <mxCell id="109" value="" style="edgeStyle=none;html=1;" edge="1" parent="1" source="102" target="104">
                    <mxGeometry relative="1" as="geometry"/>
                </mxCell>
                <mxCell id="102" value="Parcourrir chaque recette du tableau" style="whiteSpace=wrap;html=1;" vertex="1" parent="1">
                    <mxGeometry x="381" y="-1003" width="119" height="30" as="geometry"/>
                </mxCell>
                <mxCell id="112" value="" style="edgeStyle=none;html=1;" edge="1" parent="1" source="104">
                    <mxGeometry relative="1" as="geometry">
                        <mxPoint x="441" y="-900" as="targetPoint"/>
                    </mxGeometry>
                </mxCell>
                <mxCell id="104" value="Recette" style="shape=parallelogram;perimeter=parallelogramPerimeter;whiteSpace=wrap;html=1;fixedSize=1;" vertex="1" parent="1">
                    <mxGeometry x="382" y="-950" width="116.75" height="20" as="geometry"/>
                </mxCell>
                <mxCell id="116" style="edgeStyle=none;html=1;exitX=0;exitY=0.75;exitDx=0;exitDy=0;entryX=0;entryY=0.25;entryDx=0;entryDy=0;" edge="1" parent="1" source="105" target="113">
                    <mxGeometry relative="1" as="geometry">
                        <Array as="points">
                            <mxPoint x="30" y="-545"/>
                            <mxPoint x="30" y="-840"/>
                        </Array>
                    </mxGeometry>
                </mxCell>
                <mxCell id="105" value="parcourir ingredient" style="shape=parallelogram;perimeter=parallelogramPerimeter;whiteSpace=wrap;html=1;fixedSize=1;" vertex="1" parent="1">
                    <mxGeometry x="147" y="-566" width="133" height="29" as="geometry"/>
                </mxCell>
                <mxCell id="108" value="" style="edgeStyle=none;html=1;" edge="1" parent="1" source="107">
                    <mxGeometry relative="1" as="geometry">
                        <mxPoint x="441" y="-1000" as="targetPoint"/>
                    </mxGeometry>
                </mxCell>
                <mxCell id="107" value="Nettoayage de la valeur input saisie" style="whiteSpace=wrap;html=1;" vertex="1" parent="1">
                    <mxGeometry x="381" y="-1098" width="120" height="60" as="geometry"/>
                </mxCell>
                <mxCell id="113" value="Comparer avec la valeur saisie" style="whiteSpace=wrap;html=1;" vertex="1" parent="1">
                    <mxGeometry x="379" y="-850" width="124" height="40" as="geometry"/>
                </mxCell>
                <mxCell id="122" value="" style="edgeStyle=none;html=1;" edge="1" parent="1" source="119" target="121">
                    <mxGeometry relative="1" as="geometry"/>
                </mxCell>
                <mxCell id="119" value="Aucune correspondance avec le nom, description ou ingrédients" style="whiteSpace=wrap;html=1;" vertex="1" parent="1">
                    <mxGeometry x="603.5" y="-775.25" width="120" height="60" as="geometry"/>
                </mxCell>
                <mxCell id="121" value="Afficher message aucun resultats" style="whiteSpace=wrap;html=1;" vertex="1" parent="1">
                    <mxGeometry x="603.5" y="-635.25" width="120" height="60" as="geometry"/>
                </mxCell>
                <mxCell id="136" style="edgeStyle=none;html=1;exitX=0.5;exitY=1;exitDx=0;exitDy=0;" edge="1" parent="1" source="124">
                    <mxGeometry relative="1" as="geometry">
                        <mxPoint x="280" y="-390" as="targetPoint"/>
                    </mxGeometry>
                </mxCell>
                <mxCell id="137" style="edgeStyle=none;html=1;exitX=0.5;exitY=1;exitDx=0;exitDy=0;" edge="1" parent="1" source="124">
                    <mxGeometry relative="1" as="geometry">
                        <mxPoint x="439" y="-390" as="targetPoint"/>
                    </mxGeometry>
                </mxCell>
                <mxCell id="138" style="edgeStyle=none;html=1;exitX=0.5;exitY=1;exitDx=0;exitDy=0;" edge="1" parent="1" source="124">
                    <mxGeometry relative="1" as="geometry">
                        <mxPoint x="600" y="-390" as="targetPoint"/>
                    </mxGeometry>
                </mxCell>
                <mxCell id="124" value="Parcourir chaque recette" style="whiteSpace=wrap;html=1;" vertex="1" parent="1">
                    <mxGeometry x="378.75" y="-480" width="120" height="60" as="geometry"/>
                </mxCell>
                <mxCell id="145" value="" style="edgeStyle=none;html=1;" edge="1" parent="1" source="139" target="144">
                    <mxGeometry relative="1" as="geometry"/>
                </mxCell>
                <mxCell id="139" value="Ingrédients" style="shape=parallelogram;perimeter=parallelogramPerimeter;whiteSpace=wrap;html=1;fixedSize=1;" vertex="1" parent="1">
                    <mxGeometry x="220" y="-390" width="120" height="30" as="geometry"/>
                </mxCell>
                <mxCell id="143" value="" style="edgeStyle=none;html=1;" edge="1" parent="1" source="140" target="142">
                    <mxGeometry relative="1" as="geometry"/>
                </mxCell>
                <mxCell id="140" value="Ustensils" style="shape=parallelogram;perimeter=parallelogramPerimeter;whiteSpace=wrap;html=1;fixedSize=1;" vertex="1" parent="1">
                    <mxGeometry x="378.75" y="-390" width="120" height="30" as="geometry"/>
                </mxCell>
                <mxCell id="157" value="" style="edgeStyle=none;html=1;entryX=1;entryY=0.5;entryDx=0;entryDy=0;" edge="1" parent="1" source="141" target="150">
                    <mxGeometry relative="1" as="geometry">
                        <mxPoint x="600" y="-295" as="targetPoint"/>
                        <Array as="points">
                            <mxPoint x="600" y="-155"/>
                        </Array>
                    </mxGeometry>
                </mxCell>
                <mxCell id="141" value="Appareils" style="shape=parallelogram;perimeter=parallelogramPerimeter;whiteSpace=wrap;html=1;fixedSize=1;" vertex="1" parent="1">
                    <mxGeometry x="540" y="-390" width="120" height="30" as="geometry"/>
                </mxCell>
                <mxCell id="154" value="" style="edgeStyle=none;html=1;" edge="1" parent="1" source="142" target="150">
                    <mxGeometry relative="1" as="geometry"/>
                </mxCell>
                <mxCell id="142" value="Pracourir le tableau des ustensils" style="whiteSpace=wrap;html=1;" vertex="1" parent="1">
                    <mxGeometry x="378.75" y="-295" width="121.25" height="25" as="geometry"/>
                </mxCell>
                <mxCell id="149" value="" style="edgeStyle=none;html=1;" edge="1" parent="1" source="144" target="148">
                    <mxGeometry relative="1" as="geometry"/>
                </mxCell>
                <mxCell id="144" value="Parcourir le tableau des ingrédients" style="whiteSpace=wrap;html=1;" vertex="1" parent="1">
                    <mxGeometry x="220" y="-295" width="120" height="35" as="geometry"/>
                </mxCell>
                <mxCell id="151" value="" style="edgeStyle=none;html=1;" edge="1" parent="1" source="148" target="150">
                    <mxGeometry relative="1" as="geometry"/>
                </mxCell>
                <mxCell id="148" value="Ingrédients" style="shape=parallelogram;perimeter=parallelogramPerimeter;whiteSpace=wrap;html=1;fixedSize=1;" vertex="1" parent="1">
                    <mxGeometry x="220" y="-230" width="120" height="22.5" as="geometry"/>
                </mxCell>
                <mxCell id="153" value="" style="edgeStyle=none;html=1;" edge="1" parent="1" source="150" target="152">
                    <mxGeometry relative="1" as="geometry"/>
                </mxCell>
                <mxCell id="150" value="Récuprérer les éléments dans un tableau Set" style="whiteSpace=wrap;html=1;" vertex="1" parent="1">
                    <mxGeometry x="380" y="-180" width="120" height="50" as="geometry"/>
                </mxCell>
                <mxCell id="152" value="Mise à jour de la liste" style="whiteSpace=wrap;html=1;" vertex="1" parent="1">
                    <mxGeometry x="380" y="-100" width="120" height="45" as="geometry"/>
                </mxCell>
                <mxCell id="155" value="Ustensils" style="shape=parallelogram;perimeter=parallelogramPerimeter;whiteSpace=wrap;html=1;fixedSize=1;" vertex="1" parent="1">
                    <mxGeometry x="378.75" y="-232" width="120" height="22.5" as="geometry"/>
                </mxCell>
            </root>
        </mxGraphModel>
    </diagram>
</mxfile>